<svg xmlns="http://www.w3.org/2000/svg" viewBox="0 0 1440 810">
  <defs>
    <linearGradient id="bg" x1="0%" x2="100%" y1="0%" y2="100%">
      <stop offset="0%" stop-color="#1f2937" />
      <stop offset="100%" stop-color="#0f172a" />
    </linearGradient>
    <linearGradient id="beam" x1="0%" x2="100%" y1="0%" y2="0%">
      <stop offset="0%" stop-color="#f97316" stop-opacity="0.6" />
      <stop offset="100%" stop-color="#fb923c" stop-opacity="0.1" />
    </linearGradient>
  </defs>
  <rect fill="url(#bg)" width="1440" height="810" rx="40" />
  <g fill="none" stroke="#1e293b" stroke-width="6" opacity="0.8">
    <rect x="120" y="120" width="320" height="220" rx="18" />
    <rect x="520" y="160" width="260" height="160" rx="14" />
    <rect x="840" y="120" width="260" height="140" rx="14" />
    <rect x="1140" y="180" width="180" height="120" rx="12" />
  </g>
  <g fill="none" stroke="#334155" stroke-width="4" opacity="0.6">
    <rect x="200" y="420" width="360" height="220" rx="20" />
    <rect x="620" y="420" width="320" height="220" rx="20" />
    <rect x="980" y="420" width="200" height="220" rx="20" />
  </g>
  <path d="M160 190 L1280 520" stroke="url(#beam)" stroke-width="10" stroke-linecap="round" opacity="0.8" />
  <g fill="#f97316" opacity="0.7">
    <circle cx="220" cy="220" r="12" />
    <circle cx="600" cy="260" r="12" />
    <circle cx="900" cy="210" r="12" />
    <circle cx="1210" cy="250" r="12" />
  </g>
  <text x="120" y="720" font-family="'Inter', sans-serif" font-size="56" fill="#facc15" opacity="0.75">
    Manual workflows everywhere.
  </text>
  <text x="120" y="770" font-family="'Inter', sans-serif" font-size="32" fill="#e2e8f0" opacity="0.6">
    Time lost to hand-offs, duplicates and scattered touchpoints.
  </text>
</svg>
