<svg width="640" height="400" viewBox="0 0 640 400" fill="none" xmlns="http://www.w3.org/2000/svg">
  <rect width="640" height="400" rx="28" fill="url(#paint0_radial_butchery)"/>
  <defs>
    <radialGradient id="paint0_radial_butchery" cx="0" cy="0" r="1" gradientUnits="userSpaceOnUse" gradientTransform="translate(140 72) rotate(20) scale(620 420)">
      <stop offset="0" stop-color="#F97316" stop-opacity="0.9"/>
      <stop offset="0.31" stop-color="#9A3412" stop-opacity="0.72"/>
      <stop offset="0.62" stop-color="#15803D" stop-opacity="0.55"/>
      <stop offset="1" stop-color="#0F0B0A"/>
    </radialGradient>
  </defs>
  <g opacity="0.42" filter="url(#filter0_f_butchery)">
    <ellipse cx="520" cy="78" rx="220" ry="120" fill="#EAB308" fill-opacity="0.34"/>
  </g>
  <g opacity="0.35" filter="url(#filter1_f_butchery)">
    <ellipse cx="122" cy="320" rx="220" ry="122" fill="#15803D" fill-opacity="0.32"/>
  </g>
  <rect x="148" y="110" width="344" height="58" rx="20" fill="rgba(24,18,16,0.64)" stroke="rgba(231,221,210,0.16)" stroke-width="1.6"/>
  <rect x="178" y="122" width="102" height="18" rx="9" fill="#F97316"/>
  <rect x="296" y="122" width="110" height="18" rx="9" fill="#EAB308"/>
  <rect x="420" y="122" width="84" height="18" rx="9" fill="rgba(255,255,255,0.24)"/>
  <g filter="url(#filter2_f_butchery)">
    <ellipse cx="352" cy="284" rx="188" ry="110" fill="#9A3412" fill-opacity="0.35"/>
  </g>
  <path d="M212 200C212 187.297 222.297 177 235 177H492C504.703 177 515 187.297 515 200C515 212.703 504.703 223 492 223H235C222.297 223 212 212.703 212 200Z" fill="rgba(24,18,16,0.62)" stroke="rgba(231,221,210,0.12)" stroke-width="1.4"/>
  <rect x="234" y="186" width="80" height="24" rx="12" fill="#F97316"/>
  <rect x="324" y="186" width="80" height="24" rx="12" fill="#15803D"/>
  <rect x="414" y="186" width="78" height="24" rx="12" fill="rgba(255,255,255,0.22)"/>
  <path d="M150 254C150 236.431 163.431 223 181 223H469C486.569 223 500 236.431 500 254C500 271.569 486.569 285 469 285H181C163.431 285 150 271.569 150 254Z" fill="rgba(24,18,16,0.6)" stroke="rgba(231,221,210,0.1)" stroke-width="1.4"/>
  <rect x="190" y="240" width="118" height="14" rx="7" fill="rgba(255,255,255,0.28)"/>
  <rect x="190" y="266" width="94" height="8" rx="4" fill="rgba(255,255,255,0.22)"/>
  <rect x="324" y="240" width="112" height="14" rx="7" fill="#0EA5E9"/>
  <rect x="324" y="266" width="128" height="8" rx="4" fill="rgba(255,255,255,0.26)"/>
  <path d="M504 308C504 291.431 517.431 278 534 278C550.569 278 564 291.431 564 308C564 324.569 550.569 338 534 338C517.431 338 504 324.569 504 308Z" fill="rgba(24,18,16,0.64)" stroke="rgba(255,255,255,0.18)" stroke-width="1.6"/>
  <path d="M534 290L548 324H520L534 290Z" fill="#15803D"/>
  <path d="M508 322C508 317.029 512.029 313 517 313H551C555.971 313 560 317.029 560 322C560 326.971 555.971 331 551 331H517C512.029 331 508 326.971 508 322Z" stroke="#F5F5F4" stroke-opacity="0.35"/>
  <defs>
    <filter id="filter0_f_butchery" x="240" y="-122" width="560" height="360" filterUnits="userSpaceOnUse" color-interpolation-filters="sRGB">
      <feFlood flood-opacity="0" result="BackgroundImageFix"/>
      <feBlend mode="normal" in="SourceGraphic" in2="BackgroundImageFix" result="shape"/>
      <feGaussianBlur stdDeviation="30" result="effect1_foregroundBlur_butchery"/>
    </filter>
    <filter id="filter1_f_butchery" x="-178" y="100" width="600" height="440" filterUnits="userSpaceOnUse" color-interpolation-filters="sRGB">
      <feFlood flood-opacity="0" result="BackgroundImageFix"/>
      <feBlend mode="normal" in="SourceGraphic" in2="BackgroundImageFix" result="shape"/>
      <feGaussianBlur stdDeviation="35" result="effect1_foregroundBlur_butchery"/>
    </filter>
    <filter id="filter2_f_butchery" x="112" y="106" width="480" height="356" filterUnits="userSpaceOnUse" color-interpolation-filters="sRGB">
      <feFlood flood-opacity="0" result="BackgroundImageFix"/>
      <feBlend mode="normal" in="SourceGraphic" in2="BackgroundImageFix" result="shape"/>
      <feGaussianBlur stdDeviation="30" result="effect1_foregroundBlur_butchery"/>
    </filter>
  </defs>
</svg>
