<svg xmlns="http://www.w3.org/2000/svg" viewBox="0 0 1440 810">
  <defs>
    <linearGradient id="d2c-after-bg" x1="0%" x2="100%" y1="0%" y2="100%">
      <stop offset="0%" stop-color="#052e16" />
      <stop offset="100%" stop-color="#0f172a" />
    </linearGradient>
    <linearGradient id="d2c-after-glow" x1="0%" x2="100%" y1="0%" y2="0%">
      <stop offset="0%" stop-color="#34d399" stop-opacity="0.8" />
      <stop offset="100%" stop-color="#facc15" stop-opacity="0.3" />
    </linearGradient>
  </defs>
  <rect width="1440" height="810" rx="40" fill="url(#d2c-after-bg)" />
  <g fill="none" stroke="#0f766e" stroke-width="6" opacity="0.8">
    <polyline points="180,560 260,480 340,510 420,420 500,450 580,360 660,380" />
    <polyline points="760,600 840,520 920,540 1000,460 1080,480 1160,420 1240,430" />
    <polyline points="280,680 360,600 440,620 520,540 600,560 680,500 760,520" />
    <polyline points="860,700 940,620 1020,640 1100,560 1180,580 1260,520 1340,540" />
  </g>
  <path d="M160 500 C 460 360 960 380 1280 320" stroke="url(#d2c-after-glow)" stroke-width="14" stroke-linecap="round" opacity="0.85" />
  <g fill="#34d399" opacity="0.9">
    <circle cx="260" cy="520" r="18" />
    <circle cx="540" cy="450" r="18" />
    <circle cx="820" cy="430" r="18" />
    <circle cx="1100" cy="390" r="18" />
    <circle cx="1300" cy="360" r="18" />
  </g>
  <g fill="#facc15" opacity="0.9">
    <circle cx="340" cy="640" r="14" />
    <circle cx="680" cy="560" r="14" />
    <circle cx="1020" cy="520" r="14" />
    <circle cx="1220" cy="500" r="14" />
  </g>
  <text x="160" y="720" font-family="'Inter', sans-serif" font-size="52" fill="#bbf7d0" opacity="0.9">
    Loyal repeat buyers compounding.
  </text>
  <text x="160" y="770" font-family="'Inter', sans-serif" font-size="30" fill="#ccfbf1" opacity="0.8">
    Automated nurture, upsells, and calm predictable cycles.
  </text>
</svg>
