<svg xmlns="http://www.w3.org/2000/svg" viewBox="0 0 1440 810">
  <defs>
    <linearGradient id="d2c-before-bg" x1="0%" x2="100%" y1="0%" y2="100%">
      <stop offset="0%" stop-color="#111827" />
      <stop offset="100%" stop-color="#1f2937" />
    </linearGradient>
    <linearGradient id="d2c-before-glow" x1="0%" x2="100%" y1="0%" y2="0%">
      <stop offset="0%" stop-color="#f97316" stop-opacity="0.5" />
      <stop offset="100%" stop-color="#fb923c" stop-opacity="0.15" />
    </linearGradient>
  </defs>
  <rect width="1440" height="810" rx="40" fill="url(#d2c-before-bg)" />
  <g fill="none" stroke="#32404f" stroke-width="6" opacity="0.75">
    <polyline points="180,620 220,560 260,590 300,520 340,550 380,470 420,500" />
    <polyline points="500,640 540,600 580,630 620,560 660,590 700,520 740,530" />
    <polyline points="820,650 860,620 900,630 940,600 980,610 1020,540 1060,560" />
    <polyline points="1120,670 1160,640 1200,650 1240,620 1280,630 1320,600 1360,610" />
  </g>
  <path d="M180 300 C 420 220 1020 260 1320 240" stroke="url(#d2c-before-glow)" stroke-width="12" stroke-linecap="round" opacity="0.7" />
  <g fill="#f97316" opacity="0.7">
    <circle cx="280" cy="250" r="16" />
    <circle cx="620" cy="260" r="16" />
    <circle cx="960" cy="240" r="16" />
    <circle cx="1220" cy="230" r="16" />
  </g>
  <text x="160" y="720" font-family="'Inter', sans-serif" font-size="52" fill="#fbbf24" opacity="0.8">
    Flat repeat orders.
  </text>
  <text x="160" y="770" font-family="'Inter', sans-serif" font-size="30" fill="#e2e8f0" opacity="0.6">
    Ad spend rising just to hold revenue steady.
  </text>
</svg>
