<svg xmlns="http://www.w3.org/2000/svg" viewBox="0 0 1440 810">
  <defs>
    <linearGradient id="saas-before-bg" x1="0%" x2="100%" y1="0%" y2="100%">
      <stop offset="0%" stop-color="#0b1120" />
      <stop offset="100%" stop-color="#1e293b" />
    </linearGradient>
    <linearGradient id="saas-before-glow" x1="0%" x2="100%" y1="0%" y2="0%">
      <stop offset="0%" stop-color="#f97316" stop-opacity="0.55" />
      <stop offset="100%" stop-color="#fb923c" stop-opacity="0.2" />
    </linearGradient>
  </defs>
  <rect width="1440" height="810" rx="40" fill="url(#saas-before-bg)" />
  <g fill="none" stroke="#374151" stroke-width="6" opacity="0.75">
    <polyline points="220,600 280,540 340,560 400,500 460,520 520,460 580,470" />
    <polyline points="660,650 720,580 780,600 840,540 900,560 960,520 1020,540" />
    <polyline points="1100,700 1160,640 1220,660 1280,600 1340,620" />
  </g>
  <path d="M200 280 C 600 200 940 230 1260 220" stroke="url(#saas-before-glow)" stroke-width="12" stroke-linecap="round" opacity="0.75" />
  <g fill="#f97316" opacity="0.75">
    <circle cx="320" cy="240" r="16" />
    <circle cx="720" cy="250" r="16" />
    <circle cx="1020" cy="230" r="16" />
    <circle cx="1240" cy="210" r="16" />
  </g>
  <text x="180" y="720" font-family="'Inter', sans-serif" font-size="52" fill="#fbbf24" opacity="0.85">
    Instinct-led decisions.
  </text>
  <text x="180" y="770" font-family="'Inter', sans-serif" font-size="30" fill="#e2e8f0" opacity="0.65">
    No clear dashboards, hidden churn signals, bottlenecks everywhere.
  </text>
</svg>
