<svg width="640" height="400" viewBox="0 0 640 400" fill="none" xmlns="http://www.w3.org/2000/svg">
  <rect width="640" height="400" rx="28" fill="url(#paint0_radial_tyre)"/>
  <defs>
    <radialGradient id="paint0_radial_tyre" cx="0" cy="0" r="1" gradientUnits="userSpaceOnUse" gradientTransform="translate(150 68) rotate(22) scale(620 420)">
      <stop offset="0" stop-color="#38BDF8" stop-opacity="0.92"/>
      <stop offset="0.32" stop-color="#2563EB" stop-opacity="0.68"/>
      <stop offset="0.62" stop-color="#FACC15" stop-opacity="0.52"/>
      <stop offset="1" stop-color="#020617"/>
    </radialGradient>
  </defs>
  <g opacity="0.42" filter="url(#filter0_f_tyre)">
    <ellipse cx="516" cy="76" rx="220" ry="120" fill="#FACC15" fill-opacity="0.34"/>
  </g>
  <g opacity="0.35" filter="url(#filter1_f_tyre)">
    <ellipse cx="122" cy="322" rx="220" ry="122" fill="#38BDF8" fill-opacity="0.32"/>
  </g>
  <rect x="146" y="108" width="346" height="60" rx="20" fill="rgba(10,15,22,0.7)" stroke="rgba(148,163,184,0.18)" stroke-width="1.6"/>
  <rect x="174" y="120" width="104" height="18" rx="9" fill="#38BDF8"/>
  <rect x="294" y="120" width="112" height="18" rx="9" fill="#FACC15"/>
  <rect x="420" y="120" width="88" height="18" rx="9" fill="rgba(255,255,255,0.26)"/>
  <g filter="url(#filter2_f_tyre)">
    <ellipse cx="352" cy="284" rx="188" ry="108" fill="#2563EB" fill-opacity="0.32"/>
  </g>
  <path d="M212 200C212 187.297 222.297 177 235 177H492C504.703 177 515 187.297 515 200C515 212.703 504.703 223 492 223H235C222.297 223 212 212.703 212 200Z" fill="rgba(10,15,22,0.64)" stroke="rgba(148,163,184,0.18)" stroke-width="1.4"/>
  <rect x="232" y="186" width="80" height="24" rx="12" fill="#38BDF8"/>
  <rect x="322" y="186" width="80" height="24" rx="12" fill="#FACC15"/>
  <rect x="412" y="186" width="78" height="24" rx="12" fill="rgba(255,255,255,0.24)"/>
  <path d="M150 254C150 236.431 163.431 223 181 223H469C486.569 223 500 236.431 500 254C500 271.569 486.569 285 469 285H181C163.431 285 150 271.569 150 254Z" fill="rgba(10,15,22,0.62)" stroke="rgba(148,163,184,0.14)" stroke-width="1.4"/>
  <rect x="190" y="240" width="120" height="14" rx="7" fill="rgba(255,255,255,0.28)"/>
  <rect x="190" y="266" width="96" height="8" rx="4" fill="rgba(255,255,255,0.22)"/>
  <rect x="324" y="240" width="112" height="14" rx="7" fill="#38BDF8"/>
  <rect x="324" y="266" width="128" height="8" rx="4" fill="rgba(255,255,255,0.24)"/>
  <path d="M504 308C504 291.431 517.431 278 534 278C550.569 278 564 291.431 564 308C564 324.569 550.569 338 534 338C517.431 338 504 324.569 504 308Z" fill="rgba(10,15,22,0.66)" stroke="rgba(255,255,255,0.18)" stroke-width="1.6"/>
  <path d="M534 290L548 324H520L534 290Z" fill="#38BDF8"/>
  <path d="M508 322C508 317.029 512.029 313 517 313H551C555.971 313 560 317.029 560 322C560 326.971 555.971 331 551 331H517C512.029 331 508 326.971 508 322Z" stroke="#E2E8F0" stroke-opacity="0.35"/>
  <defs>
    <filter id="filter0_f_tyre" x="236" y="-124" width="560" height="360" filterUnits="userSpaceOnUse" color-interpolation-filters="sRGB">
      <feFlood flood-opacity="0" result="BackgroundImageFix"/>
      <feBlend mode="normal" in="SourceGraphic" in2="BackgroundImageFix" result="shape"/>
      <feGaussianBlur stdDeviation="30" result="effect1_foregroundBlur_tyre"/>
    </filter>
    <filter id="filter1_f_tyre" x="-178" y="102" width="604" height="440" filterUnits="userSpaceOnUse" color-interpolation-filters="sRGB">
      <feFlood flood-opacity="0" result="BackgroundImageFix"/>
      <feBlend mode="normal" in="SourceGraphic" in2="BackgroundImageFix" result="shape"/>
      <feGaussianBlur stdDeviation="35" result="effect1_foregroundBlur_tyre"/>
    </filter>
    <filter id="filter2_f_tyre" x="112" y="106" width="480" height="356" filterUnits="userSpaceOnUse" color-interpolation-filters="sRGB">
      <feFlood flood-opacity="0" result="BackgroundImageFix"/>
      <feBlend mode="normal" in="SourceGraphic" in2="BackgroundImageFix" result="shape"/>
      <feGaussianBlur stdDeviation="30" result="effect1_foregroundBlur_tyre"/>
    </filter>
  </defs>
</svg>
